<?xml version="1.0" standalone="no"?>
						<!DOCTYPE svg PUBLIC "-//W3C//DTD SVG 20010904//EN"
						"http://www.w3.org/TR/2001/REC-SVG-20010904/DTD/svg10.dtd">
						<svg id="my_logo" version="1.0" xmlns="http://www.w3.org/2000/svg"
						width="100%" height="100%" viewBox="0 0 670.000000 292.000000"
						preserveAspectRatio="xMidYMid meet">

						<g transform="translate(0.000000,292.000000) scale(0.100000,-0.100000)"
						fill="black" stroke="none">
						<path d="M3218 2912 c-200 -2 -238 -5 -238 -17 0 -21 26 -31 120 -45 113 -16
						162 -39 194 -87 33 -50 34 -61 46 -573 8 -365 11 -406 27 -417 12 -10 73 -13
						223 -13 l207 0 6 248 c4 136 7 321 8 412 0 91 4 202 8 248 7 72 12 87 37 113
						37 39 65 53 134 68 133 30 153 46 68 55 -68 7 -536 12 -840 8z"/>
						<path d="M5038 2911 c-64 -3 -119 -9 -122 -12 -15 -14 27 -29 119 -43 169 -26
						221 -76 235 -229 5 -45 12 -295 15 -554 5 -332 11 -475 19 -481 20 -16 352
						-92 401 -92 l23 0 6 403 c12 705 26 862 82 906 13 10 65 28 116 40 104 24 131
						36 110 49 -27 18 -718 26 -1004 13z"/>
						<path d="M1786 2863 c-14 -20 -78 -170 -142 -332 -64 -163 -158 -395 -207
						-516 -129 -315 -177 -437 -177 -448 0 -16 118 -1 190 25 81 29 86 37 175 298
						75 218 89 250 110 250 21 0 42 -48 120 -267 l69 -193 61 0 c72 0 267 18 310
						29 49 12 44 45 -41 251 -41 102 -125 310 -184 462 -127 321 -161 399 -196 445
						-33 43 -57 42 -88 -4z"/>
						<path d="M2475 1549 c-355 -31 -697 -77 -1020 -139 -452 -85 -757 -180 -1073
						-332 -158 -76 -340 -204 -319 -224 4 -4 100 19 214 50 203 55 506 123 650 147
						102 17 109 9 79 -79 -37 -108 -149 -396 -215 -550 -69 -165 -121 -244 -188
						-289 -56 -36 -63 -39 -173 -58 -87 -15 -121 -32 -98 -46 20 -13 925 -11 934 2
						11 19 -11 29 -82 41 -85 13 -142 40 -150 72 -18 74 42 279 203 696 52 135 97
						253 100 263 3 9 9 17 13 17 4 0 65 9 136 20 324 49 578 64 607 35 19 -19 56
						-107 194 -470 120 -313 203 -548 203 -571 0 -8 -16 -32 -36 -54 -33 -36 -34
						-41 -18 -47 11 -4 407 -8 881 -8 943 0 996 3 752 46 -132 23 -196 51 -222 96
						-21 37 -33 264 -40 772 l-5 294 277 -6 c303 -7 621 -27 921 -57 221 -23 255
						-31 264 -63 9 -35 6 -608 -4 -756 -14 -206 -43 -249 -184 -276 -79 -15 -107
						-28 -92 -42 12 -13 1137 -16 1150 -3 19 19 -9 30 -134 50 -68 11 -135 26 -149
						33 -33 16 -68 87 -82 167 -6 36 -13 224 -16 418 l-6 352 26 0 c67 0 484 -93
						725 -162 78 -23 145 -38 148 -35 14 13 -10 45 -64 85 -78 58 -407 220 -572
						281 -259 96 -689 192 -1163 261 -511 74 -481 73 -1422 75 -467 2 -895 -1 -950
						-6z m863 -326 c12 -30 7 -729 -6 -850 -16 -141 -44 -235 -79 -262 -38 -31
						-100 -28 -150 7 -106 72 -190 220 -360 632 -107 259 -176 449 -169 466 7 18
						55 20 434 22 299 2 323 1 330 -15z"/>
						</g>
						</svg>